<svg width="50" height="50" viewBox="0 0 50 50" fill="none" xmlns="http://www.w3.org/2000/svg">
<path fill-rule="evenodd" clip-rule="evenodd" d="M44.8149 40.2457C48.0663 36.0261 50 30.7389 50 25C50 16.9809 46.2244 9.84366 40.3539 5.26892C42.0379 29.8132 42.6968 38.6379 42.8382 40.2457H44.8149ZM41.2775 43.9754H8.72251C13.0962 47.7308 18.7831 50 25 50C31.2169 50 36.9037 47.7308 41.2775 43.9754ZM5.18507 40.2457C1.93369 36.0261 0 30.7389 0 25C0 11.1929 11.1929 0 25 0C29.606 0 33.921 1.24559 37.6266 3.4183C37.5519 13.4403 33.6746 21.0414 28.442 26.6542L26.8732 28.337L26.8333 28.3317C22.7498 32.4152 18.0679 36.6476 10.9869 40.2457H5.18507ZM12.6646 40.2457H40.2371C39.6768 38.426 38.565 35.9085 36.8642 33.6799C35.094 31.3604 32.7699 29.4576 29.8571 28.8496C25.7267 32.5442 19.3668 37.2804 12.6646 40.2457ZM38.4836 14.2984C36.9915 19.1435 34.5761 23.2789 31.6634 26.762C34.7202 27.763 37.094 29.8825 38.8408 32.1714C39.1984 32.6399 39.5324 33.1188 39.8433 33.6015C39.5437 29.4671 39.1044 23.2659 38.4836 14.2984ZM16.5831 8.9598C16.5792 9.24459 16.64 9.52781 16.7654 9.80948C16.8706 10.0457 17.0051 10.2744 17.1688 10.4954C17.3325 10.7165 17.4958 10.8996 17.6584 11.045C17.8292 11.2084 18.0611 11.3991 18.3541 11.6171C18.6471 11.835 18.978 12.0524 19.3467 12.2693C19.7246 12.4821 20.1195 12.6601 20.5316 12.8032C20.9569 12.9514 21.3851 13.0329 21.8164 13.0478C22.2476 13.0626 22.6631 12.9811 23.0629 12.8031C23.4626 12.6251 23.7675 12.3805 23.9773 12.0693C24.1962 11.7541 24.3652 11.4121 24.4841 11.0434C24.6161 10.6798 24.7477 10.3273 24.8787 9.98586C25.0138 9.65353 25.209 9.37064 25.4644 9.13719C25.5623 9.03917 25.6748 8.96184 25.802 8.9052C25.9565 8.83643 26.1185 8.79694 26.2882 8.78673C26.471 8.78156 26.6432 8.81376 26.8048 8.88333C26.9573 8.95695 27.1114 9.09519 27.2671 9.29807C27.4318 9.49691 27.5526 9.68264 27.6295 9.85527C27.6619 9.92796 27.6856 9.99359 27.7008 10.0521C27.7251 10.1067 27.7317 10.1582 27.7206 10.2066L27.5801 10.8081C27.552 10.9404 27.5621 11.0611 27.6107 11.1701C27.6956 11.3609 27.8153 11.4219 27.9698 11.3532C28.0243 11.3289 28.0753 11.2844 28.1227 11.2198C28.1318 11.2157 28.1802 11.1778 28.2681 11.1061C28.369 11.0393 28.4538 10.9363 28.5223 10.7969C28.595 10.6666 28.5933 10.504 28.5175 10.3091C28.4982 10.2415 28.4724 10.1713 28.4401 10.0986L28.343 9.88055C28.1933 9.54437 28.0093 9.22891 27.791 8.93418C27.5726 8.63944 27.2958 8.40887 26.9604 8.24247C26.721 8.12044 26.4553 8.0373 26.1635 7.99306C25.8756 7.95791 25.6 7.99899 25.3365 8.11631C25.2547 8.15272 25.1724 8.20024 25.0897 8.25886C25.0069 8.31749 24.9282 8.3852 24.8535 8.462C24.5447 8.79546 24.3177 9.14149 24.1725 9.50008C24.0273 9.85868 23.8983 10.2046 23.7854 10.538C23.6857 10.8763 23.5475 11.1774 23.371 11.4411C23.1985 11.7138 22.935 11.9291 22.5807 12.0869C22.1627 12.273 21.7366 12.3429 21.3023 12.2968C20.8772 12.2466 20.464 12.1257 20.063 11.934C19.6751 11.7475 19.3129 11.5331 18.9765 11.291C18.6532 11.0539 18.3778 10.839 18.1505 10.6462C17.9494 10.4636 17.7796 10.2779 17.6411 10.0891C17.4936 9.90443 17.3854 9.73484 17.3166 9.58038C17.1791 9.27145 17.1663 9.05939 17.2784 8.94419C17.5064 8.72288 17.5841 8.53045 17.5112 8.36691C17.4789 8.29422 17.4097 8.24882 17.3036 8.23071C17.1976 8.21261 17.0673 8.23794 16.9129 8.30671C16.6918 8.47046 16.5819 8.68815 16.5831 8.9598ZM14.1682 17.2196C14.0428 16.938 13.982 16.6547 13.9858 16.37C13.9846 16.0983 14.0946 15.8806 14.3156 15.7169C14.4701 15.6481 14.6003 15.6228 14.7064 15.6409C14.8124 15.659 14.8816 15.7044 14.914 15.7771C14.9868 15.9406 14.9092 16.133 14.6811 16.3544C14.5691 16.4695 14.5818 16.6816 14.7194 16.9905C14.7882 17.145 14.8963 17.3146 15.0439 17.4993C15.1824 17.688 15.3522 17.8737 15.5532 18.0564C15.7806 18.2491 16.0559 18.464 16.3792 18.7011C16.7157 18.9433 17.0778 19.1576 17.4658 19.3442C17.8668 19.5358 18.2799 19.6567 18.7051 19.7069C19.1394 19.7531 19.5655 19.6831 19.9834 19.497C20.3378 19.3393 20.6012 19.124 20.7737 18.8512C20.9503 18.5875 21.0884 18.2865 21.1882 17.9481C21.3011 17.6148 21.4301 17.2688 21.5753 16.9102C21.7204 16.5516 21.9474 16.2056 22.2562 15.8722C22.3309 15.7954 22.4096 15.7276 22.4924 15.669C22.5752 15.6104 22.6574 15.5629 22.7392 15.5265C23.0027 15.4091 23.2784 15.3681 23.5662 15.4032C23.8581 15.4475 24.1237 15.5306 24.3632 15.6526C24.6985 15.819 24.9754 16.0496 25.1937 16.3443C25.412 16.6391 25.596 16.9545 25.7457 17.2907L25.8428 17.5088C25.8752 17.5815 25.901 17.6516 25.9202 17.7193C25.9961 17.9141 25.9977 18.0767 25.9251 18.207C25.8565 18.3464 25.7717 18.4495 25.6708 18.5162C25.583 18.588 25.5345 18.6259 25.5255 18.6299C25.478 18.6946 25.4271 18.7391 25.3726 18.7633C25.2181 18.8321 25.0984 18.7711 25.0134 18.5803C24.9649 18.4712 24.9547 18.3506 24.9829 18.2183L25.1234 17.6168C25.1344 17.5683 25.1278 17.5168 25.1036 17.4623C25.0884 17.4037 25.0646 17.3381 25.0322 17.2654C24.9554 17.0928 24.8346 16.9071 24.6698 16.7082C24.5142 16.5054 24.3601 16.3671 24.2076 16.2935C24.0459 16.2239 23.8737 16.1917 23.691 16.1969C23.5213 16.2071 23.3592 16.2466 23.2048 16.3154C23.0776 16.372 22.965 16.4493 22.8671 16.5473C22.6118 16.7808 22.4166 17.0637 22.2815 17.396C22.1504 17.7374 22.0189 18.09 21.8868 18.4536C21.7679 18.8223 21.599 19.1642 21.3801 19.4794C21.1702 19.7906 20.8654 20.0352 20.4656 20.2132C20.0658 20.3912 19.6503 20.4728 19.2191 20.4579C18.7879 20.4431 18.3596 20.3615 17.9344 20.2134C17.5223 20.0703 17.1273 19.8923 16.7495 19.6794C16.3807 19.4626 16.0499 19.2452 15.7569 19.0272C15.4639 18.8093 15.232 18.6186 15.0612 18.4551C14.8985 18.3098 14.7353 18.1266 14.5716 17.9056C14.4078 17.6845 14.2733 17.4559 14.1682 17.2196ZM12.1528 24.1194C12.0274 23.8377 11.9666 23.5545 11.9705 23.2697C11.9693 22.9981 12.0792 22.7804 12.3003 22.6166C12.4547 22.5478 12.585 22.5225 12.691 22.5406C12.7971 22.5587 12.8663 22.6041 12.8986 22.6768C12.9715 22.8404 12.8938 23.0328 12.6657 23.2541C12.5537 23.3693 12.5665 23.5814 12.704 23.8903C12.7728 24.0447 12.881 24.2143 13.0285 24.399C13.167 24.5878 13.3368 24.7735 13.5379 24.9561C13.7652 25.1489 14.0406 25.3638 14.3639 25.6009C14.7003 25.843 15.0625 26.0574 15.4504 26.2439C15.8514 26.4356 16.2645 26.5565 16.6897 26.6067C17.124 26.6528 17.5501 26.5829 17.9681 26.3968C18.3224 26.239 18.5859 26.0237 18.7584 25.751C18.9349 25.4873 19.0731 25.1862 19.1728 24.8479C19.2857 24.5145 19.4147 24.1686 19.5599 23.81C19.7051 23.4514 19.9321 23.1054 20.2409 22.7719C20.3155 22.6951 20.3943 22.6274 20.477 22.5688C20.5598 22.5101 20.6421 22.4626 20.7239 22.4262C20.9874 22.3089 21.263 22.2678 21.5508 22.303C21.8427 22.3472 22.1084 22.4303 22.3478 22.5524C22.6832 22.7188 22.96 22.9493 23.1784 23.2441C23.3967 23.5388 23.5807 23.8543 23.7304 24.1904L23.8275 24.4085C23.8598 24.4812 23.8856 24.5514 23.9049 24.619C23.9807 24.8139 23.9823 24.9765 23.9097 25.1068C23.8411 25.2462 23.7564 25.3492 23.6554 25.416C23.5676 25.4877 23.5192 25.5256 23.5101 25.5297C23.4627 25.5943 23.4117 25.6388 23.3572 25.6631C23.2027 25.7318 23.083 25.6708 22.9981 25.48C22.9495 25.371 22.9393 25.2503 22.9675 25.118L23.108 24.5165C23.1191 24.4681 23.1125 24.4166 23.0882 24.362C23.073 24.3035 23.0492 24.2379 23.0169 24.1652C22.94 23.9925 22.8192 23.8068 22.6545 23.608C22.4988 23.4051 22.3447 23.2668 22.1922 23.1932C22.0306 23.1237 21.8584 23.0915 21.6756 23.0966C21.5059 23.1068 21.3439 23.1463 21.1894 23.2151C21.0622 23.2717 20.9497 23.3491 20.8518 23.4471C20.5964 23.6805 20.4012 23.9634 20.2661 24.2958C20.1351 24.6372 20.0035 24.9897 19.8715 25.3533C19.7525 25.722 19.5836 26.064 19.3647 26.3792C19.1548 26.6904 18.85 26.935 18.4502 27.113C18.0505 27.291 17.635 27.3725 17.2037 27.3577C16.7725 27.3428 16.3443 27.2613 15.919 27.1131C15.5069 26.97 15.1119 26.792 14.7341 26.5792C14.3654 26.3623 14.0345 26.1449 13.7415 25.927C13.4485 25.709 13.2166 25.5183 13.0458 25.3548C12.8832 25.2095 12.7199 25.0264 12.5562 24.8053C12.3924 24.5843 12.258 24.3556 12.1528 24.1194Z" fill="url(#paint0_linear_231_61)"/>
<defs>
<linearGradient id="paint0_linear_231_61" x1="25" y1="0" x2="25" y2="50" gradientUnits="userSpaceOnUse">
<stop offset="0.265" stop-color="#E08906"/>
<stop offset="1" stop-color="#BC16A1"/>
</linearGradient>
</defs>
</svg>
